# xmcd
#
# Track frame offsets:
#	150
#	16164
#	36156
#	55137
#	74175
#	97316
#	117041
#	135365
#	155488
#	174218
#	191183
#	207232
#
# Disc length: 2990 seconds
#
# Revision: 1
# Processed by: cddbd v1.5.2PL0 Copyright (c) Steve Scherf et al.
# Submitted via: audiograbber 1.83.01
#
DISCID=a80bac0c
DTITLE=TOM WOOD - Where We Belong
DYEAR=2013
DGENRE=Country
TTITLE0=Where We Belong
TTITLE1=Bobby
TTITLE2=Ring Of Fire
TTITLE3=Forever More
TTITLE4=Beneath Still Waters
TTITLE5=You Were Only A Dance
TTITLE6=Island
TTITLE7=A Soft Place To Fall
TTITLE8=Love Hurts
TTITLE9=My Red Haired Lady
TTITLE10=Halfway To Paradise
TTITLE11=Waltz Of The Angles
EXTD=
EXTT0=
EXTT1=
EXTT2=
EXTT3=
EXTT4=
EXTT5=
EXTT6=
EXTT7=
EXTT8=
EXTT9=
EXTT10=
EXTT11=
PLAYORDER=
